<?xml version="1.0" encoding="utf-8"?>
<!-- Generator: Adobe Illustrator 19.1.0, SVG Export Plug-In . SVG Version: 6.00 Build 0)  -->
<svg version="1.1" id="Layer_1" xmlns="http://www.w3.org/2000/svg" xmlns:xlink="http://www.w3.org/1999/xlink" x="0px" y="0px"
	 viewBox="39.3 325.4 535.1 141.7" style="enable-background:new 39.3 325.4 535.1 141.7;" xml:space="preserve">
<style type="text/css">
	.st0{fill:#A7DBD8;}
</style>
<g>
	<path class="st0" d="M218.8,452.5c-33.2,12.5-81,5.5-103.5-21.7c2.1-2.8,3.6-5.6,4.4-8.4c5.2-17.8-0.5-30.5-25-41.6
		c-18.5-8.4-23.7-20.5-16.9-30.5c5.8-8.4,20.6-10.6,31.1-3.9c16.5,10.7,2.8,28-18.3,18.6c-0.9-0.5-2.4,1.3-1.1,1.9
		c22.5,11,43.1-12.3,26.2-23.4c-12.5-8.2-34.9-5.5-43.5,7.4c-8.7,12.9-6,27.7,13.1,37.2c14.9,7.2,31.1,20.9,26.5,36
		c-0.1,0.7-0.4,1.3-0.7,2c-26.9-29.6-60.8-30.4-69.5-13.4c-7,13.2,2.4,29.3,21.4,35.2c19.4,5.9,39.5-2.7,50.1-14.2
		c26.9,30.7,69.9,39.2,104,29.9C218.8,463.2,220.5,451.8,218.8,452.5z M68.3,443.3c-16.3-5-22.1-21.2-15.8-32.1
		c8.2-14.1,36.1-5.5,56.8,18.2C102.2,440.7,84.7,448.3,68.3,443.3z"/>
	<path class="st0" d="M147.7,437.6c6.4,0,10.8-7.6,13.7-17.3c1.9,9.5,5.9,13.8,9.8,16.2c4.6,3,10.7,1.9,15.1-2.3
		c-0.1,1-0.2,2.1-0.2,3.2c-0.1,0.8,2,1,4.5,0.8c2.8-0.3,4.5-1.3,4.8-3c3.4-23.7,9.7-47.3,15.7-48.7c2.6-0.5,3.9,2.6,2.5,8.2
		c-1.3,5.3,10.4-0.6,10.8-3.3c0.8-5.3-2.6-10.8-10.2-9.4c-11.2,2.1-14.7,16.7-18.8,34.9c-0.3,1.4-1,1.5-0.9,0.1
		c1-14.6,2-23.1,3.1-31.1c0.1-1.8-12,0.4-11.8,2.3c1.2,7.9,2.1,20.7,0.8,42c-2.7,4.7-7.4,7.1-11.6,4.2c-2.7-1.7-5.6-7.6-5-18.7
		c0.4-6.4,2-20.4,5.6-30.7c0.9-2.5-8.4-0.3-11.6,2.4c-6.8-8-29.5-7.5-32.8,20.4C128.4,429.2,139.5,437.6,147.7,437.6z M141.6,406.5
		c2.7-21.4,18.5-25.3,20.8-15.4c-0.8,4.3-1.3,8.4-1.6,12.2c-1.4,12.7-4,29.7-10.8,29.7C143.6,433,139.4,424.9,141.6,406.5z"/>
	<path class="st0" d="M277.5,439.7c-7.9,4.7-17.4,0.9-15.9-24.2c0.4-6.4,2-20.4,5.6-30.7c0.9-2.5-8.4-0.3-11.8,2.4
		c-6.7-8-29.3-7.5-32.7,20.4c-2.7,21.6,8.4,30,16.6,30c6.3,0,10.6-7.4,13.4-16.7c2.4,20.6,15.9,27,25.6,21.3
		C280.6,440.8,279.2,438.8,277.5,439.7z M252.7,399.3c0,0.4-0.1,0.7-0.1,0.9c-1.2,12.9-3.6,32.8-11,32.8c-6.4,0-10.7-8.2-8.4-26.5
		c2.5-21.4,18.5-25.3,20.8-15.4C253.4,393.9,253,396.8,252.7,399.3z"/>
	<path class="st0" d="M338.2,380.7c-18.5-8.3-22.5-21-15.4-30.4c6.2-8,20.2-11.1,29.9-3.3c7,5.8,7.1,13.5,2.8,17.8
		c-6,6.3-17.3,6.2-22.2-4.4c-0.4-0.9-2.7-0.7-2.1,0.7c4.8,11.5,19.1,12.6,27.3,5.8c7.2-6,8-16.6,1.3-22.1
		c-11.6-9.4-33.5-6.6-42.7,5.8c-10.2,13.5-4.4,29.1,13.1,37.8c14.9,7.4,29.7,19.7,25,34.8c-4.7,15.4-26.5,22-42.8,15
		c-14.5-6-15.5-23.3-8.6-32c7.4-9,25.2-9.8,38,13.1c0.8,1.5,7-1.5,6.2-2.8c-17.7-26.4-42.8-23.3-52.7-10.8
		c-8.7,10.8-2.7,28.1,14.2,35.2c23,9.8,47.9,2.3,53.8-18.2C368.1,406.3,363.1,391.9,338.2,380.7z"/>
	<path class="st0" d="M563.4,363.7c-14.6,2.8-20.6,18.9-25.7,46.3c-0.3,1.3-1.1,1.6-0.9,0c1.1-15.4,1.7-19.1,2.8-27.7
		c0.3-1.9-12.9,0.4-12.5,2.3c1.1,6.9,1.8,17.3,1.3,33c0,0.1,0,0.1-0.1,0.2c-2.1,7.2-10.4,17.9-21,16.9c-5.1-0.4-8.8-3.3-11.1-7.9
		c23-13.1,30.4-42.2,13.8-45.5c-11.6-2.4-24.1,10.3-26.2,28c-0.8,6.7,0.1,12.1,2.1,16.5c-2.4,4.8-8.5,10.9-13.5,8.9
		c-9.1-3.3-11.2-21.8-6.3-56.1c15.9,0.5,32.3-0.4,41.9-5.5c5-2.5-2-13.1-2.8-12.6c-9.4,6.7-23.8,10.7-38.3,12.5
		c0.7-4.4,1.5-9.2,2.4-14.2c0.4-1.7-12.6-0.9-12.7,0.9c-0.5,5-0.9,9.8-1.2,14.3c-2.8,0.1-5.6,0.3-8.3,0.3c-1.6,0-2.4,2.9-0.9,2.9
		l9,0.8c-1.2,19-0.7,35.3,2.7,46.2c-0.4,1-1,2.3-1,2.4c-2.4,6.5-8.1,11.1-13.2,7.7c-2.7-1.7-5.6-7.6-5-18.7c0.4-6.4,2-20.4,5.6-30.7
		c0.9-2.5-8.4-0.3-11.6,2.4c-6.8-8-29.5-7.5-32.8,20.4c-1.1,8.8,0.1,15.4,2.5,20.2c-2.8,4.2-7.8,8.6-12.2,7
		c-6.4-2.4-13.1-16.9-9.8-52.3c2.9-30.8,7.1-57,18.9-54c11.9,2.9,4,25.6-11.9,30.7c-0.9,0.3-2.4,3.2,1.6,2
		c18.9-5.8,27.3-29.9,13.1-35.1c-14.3-5.1-30.5,15.3-32.3,58c-1.3,32.4,5.9,49.7,16.2,53.4c7.2,2.7,13.9-2.2,17.8-7.3
		c3.5,5.1,8.5,7.4,12.7,7.4c6.4,0,10.8-7.6,13.7-17.3c1.9,9.5,5.9,13.8,9.8,16.2c6.5,4.2,15.8,0.4,19.3-8.9c2.1,5,5.1,8.4,9.1,9.9
		c8,2.9,15.5-3.4,19.1-9c3.8,5.9,9.9,9.1,16.6,9.8c10.7,1,19.7-6.3,24.1-14.1c-0.2,4-0.5,8.4-0.9,13.1c0,0.7,2.3,0.9,5,0.8
		c2.9-0.3,4.4-1.3,4.7-3.1c6.2-40.6,12.5-64,23-66.3c2.8-0.7,4.1,2.8,2.8,8.7c-1.3,5.5,11.1-0.8,11.5-3.5
		C575.1,368.4,571.3,362.1,563.4,363.7z M429.4,403.3c-1.3,12.7-3.9,29.7-10.7,29.7c-6.4,0-10.6-8.2-8.4-26.5
		c2.7-21.4,18.5-25.3,20.8-15.4C430.2,395.4,429.7,399.6,429.4,403.3z M495.3,424.7c-1.6-4.6-2.1-10.4-1.2-17.1
		c1.5-13.1,6.2-24.5,13.3-23.2c6.7,1.5,2.7,27.7-11.9,40.2L495.3,424.7z"/>
</g>

</svg>
